<?xml version="1.0" standalone="no"?>
<!DOCTYPE svg PUBLIC "-//W3C//DTD SVG 20010904//EN"
 "http://www.w3.org/TR/2001/REC-SVG-20010904/DTD/svg10.dtd">
<svg version="1.0" xmlns="http://www.w3.org/2000/svg"
 width="700.000000pt" height="700.000000pt" viewBox="0 0 700.000000 700.000000"
 preserveAspectRatio="xMidYMid meet">
<metadata>
Created by potrace 1.11, written by Peter Selinger 2001-2013
</metadata>
<g transform="translate(0.000000,700.000000) scale(0.100000,-0.100000)"
fill="#000000" stroke="none">
<path d="M0 3500 l0 -3500 3500 0 3500 0 0 3500 0 3500 -3500 0 -3500 0 0
-3500z m6905 0 l0 -3405 -3405 0 -3405 0 -3 3395 c-1 1867 0 3401 3 3408 3 10
690 12 3407 10 l3403 -3 0 -3405z"/>
<path d="M100 3500 l0 -3400 3400 0 3400 0 0 3400 0 3400 -3400 0 -3400 0 0
-3400z"/>
</g>
</svg>
