<?xml version="1.0" encoding="UTF-8" standalone="no"?>
<svg width="60px" height="59px" viewBox="0 0 60 59" version="1.1" xmlns="http://www.w3.org/2000/svg" xmlns:xlink="http://www.w3.org/1999/xlink" xmlns:sketch="http://www.bohemiancoding.com/sketch/ns">
    <!-- Generator: Sketch 3.5.1 (25234) - http://www.bohemiancoding.com/sketch -->
    <title>github10</title>
    <desc>Created with Sketch.</desc>
    <defs></defs>
    <g id="Artboards" stroke="none" stroke-width="1" fill="none" fill-rule="evenodd" sketch:type="MSPage">
        <g id="Mobile-Portrait" sketch:type="MSArtboardGroup" transform="translate(-130.000000, -4722.000000)" fill="#ECEFF1">
            <g id="Group-2-Copy" sketch:type="MSLayerGroup" transform="translate(35.000000, 4462.000000)">
                <g id="Icons" transform="translate(0.000000, 260.000000)" sketch:type="MSShapeGroup">
                    <g id="github10" transform="translate(95.000000, 0.000000)">
                        <path d="M55.7990476,15.2961905 C53.1347619,10.7309524 49.5204762,7.11666667 44.9557143,4.45238095 C40.39,1.78809524 35.4057143,0.456190476 29.9995238,0.456190476 C24.5938095,0.456190476 19.6080952,1.78857143 15.0433333,4.45238095 C10.4780952,7.11666667 6.86380952,10.7309524 4.19952381,15.2961905 C1.5352381,19.8614286 0.203333333,24.8466667 0.203333333,30.2519048 C0.203333333,36.7442857 2.09761905,42.5828571 5.88714286,47.7685714 C9.67619048,52.9542857 14.5709524,56.5428571 20.5714286,58.5342857 C21.27,58.6638095 21.7871429,58.5728571 22.1233333,58.2633333 C22.4595238,57.9528571 22.627619,57.5647619 22.627619,57.0995238 C22.627619,57.0219048 22.6209524,56.3238095 22.6080952,55.0047619 C22.5947619,53.6852381 22.5885714,52.5342857 22.5885714,51.552381 L21.6961905,51.7066667 C21.1271429,51.8109524 20.4095238,51.8552381 19.5428571,51.842381 C18.6766667,51.8304762 17.777619,51.7395238 16.8466667,51.5709524 C15.9152381,51.4033333 15.0490476,51.0157143 14.2471429,50.4080952 C13.4457143,49.8 12.8766667,49.0042857 12.5404762,48.0219048 L12.152381,47.1290476 C11.8938095,46.5347619 11.4866667,45.8747619 10.9304762,45.1509524 C10.3742857,44.4266667 9.81190476,43.9352381 9.24285714,43.6766667 L8.97142857,43.4828571 C8.79047619,43.3533333 8.62238095,43.197619 8.46714286,43.0166667 C8.31190476,42.8357143 8.19571429,42.6547619 8.11809524,42.4733333 C8.04047619,42.292381 8.1047619,42.1433333 8.31190476,42.0266667 C8.51904762,41.91 8.89380952,41.8528571 9.43714286,41.8528571 L10.2128571,41.9690476 C10.73,42.072381 11.37,42.382381 12.1333333,42.9 C12.8961905,43.4171429 13.5233333,44.0895238 14.0147619,44.9166667 C14.61,45.977619 15.3271429,46.7857143 16.1680952,47.3419048 C17.0085714,47.8980952 17.8557143,48.1757143 18.7090476,48.1757143 C19.562381,48.1757143 20.2995238,48.1109524 20.9204762,47.9819048 C21.5409524,47.8528571 22.1228571,47.6585714 22.6661905,47.4 C22.8990476,45.6666667 23.5328571,44.3347619 24.5671429,43.4038095 C23.0928571,43.2485714 21.767619,43.0152381 20.5904762,42.7052381 C19.4138095,42.3947619 18.1980952,41.8904762 16.9438095,41.1914286 C15.6890476,40.4933333 14.6480952,39.6266667 13.8204762,38.592381 C12.9928571,37.557619 12.3138095,36.1995238 11.7838095,34.5185714 C11.2538095,32.8371429 10.9885714,30.897619 10.9885714,28.6990476 C10.9885714,25.5690476 12.0104762,22.9052381 14.0538095,20.7066667 C13.0966667,18.3533333 13.1871429,15.7152381 14.3252381,12.792381 C15.0752381,12.5595238 16.187619,12.7342857 17.6619048,13.3161905 C19.1361905,13.8980952 20.2157143,14.3966667 20.9014286,14.81 C21.5871429,15.2233333 22.1366667,15.5733333 22.5504762,15.857619 C24.9561905,15.1852381 27.4390476,14.8490476 29.9995238,14.8490476 C32.56,14.8490476 35.0433333,15.1852381 37.4495238,15.857619 L38.9238095,14.9266667 C39.9319048,14.3057143 41.122381,13.7366667 42.492381,13.2195238 C43.8633333,12.702381 44.9114286,12.56 45.6357143,12.7928571 C46.7995238,15.7157143 46.9028571,18.3538095 45.9457143,20.7071429 C47.9890476,22.9057143 49.0109524,25.57 49.0109524,28.6995238 C49.0109524,30.8980952 48.7452381,32.8438095 48.2157143,34.5380952 C47.6852381,36.2328571 47.0004762,37.59 46.16,38.6119048 C45.3190476,39.6338095 44.2714286,40.4938095 43.0171429,41.1919048 C41.762381,41.8904762 40.5466667,42.3947619 39.37,42.7052381 C38.1928571,43.0157143 36.867619,43.2490476 35.3933333,43.4042857 C36.7380952,44.5680952 37.4104762,46.4042857 37.4104762,48.9133333 L37.4104762,57.0985714 C37.4104762,57.5638095 37.572381,57.9519048 37.8957143,58.2619048 C38.2190476,58.5719048 38.7295238,58.6628571 39.4280952,58.5333333 C45.4290476,56.5419048 50.3238095,52.9533333 54.1128571,47.7671429 C57.9019048,42.5819048 59.7966667,36.7433333 59.7966667,30.2504762 C59.7952381,24.8461905 58.462381,19.8614286 55.7990476,15.2961905 L55.7990476,15.2961905 Z" id="Shape"></path>
                    </g>
                </g>
            </g>
        </g>
    </g>
</svg>