<?xml version="1.0" encoding="UTF-8" standalone="no"?>
<svg width="88px" height="122px" viewBox="0 0 88 122" version="1.1" xmlns="http://www.w3.org/2000/svg" xmlns:xlink="http://www.w3.org/1999/xlink" xmlns:sketch="http://www.bohemiancoding.com/sketch/ns">
    <!-- Generator: Sketch 3.5.1 (25234) - http://www.bohemiancoding.com/sketch -->
    <title>light45</title>
    <desc>Created with Sketch.</desc>
    <defs></defs>
    <g id="Artboards" stroke="none" stroke-width="1" fill="none" fill-rule="evenodd" sketch:type="MSPage">
        <g id="Desktop" sketch:type="MSArtboardGroup" transform="translate(-61.000000, -2232.000000)" fill="#ECEFF1">
            <g id="About-Section" sketch:type="MSLayerGroup" transform="translate(0.000000, 2170.000000)">
                <g id="light45" transform="translate(112.014359, 123.565481) rotate(-20.000000) translate(-112.014359, -123.565481) translate(70.014359, 60.565481)" sketch:type="MSShapeGroup">
                    <g id="Group" transform="translate(-0.000000, -0.000000)">
                        <path d="M80.087,21.897 C77.671,17.254 74.494,13.397 70.557,10.328 C66.619,7.26 62.164,4.843 57.196,3.077 C52.225,1.313 47.16,0.43 42,0.43 C36.84,0.43 31.775,1.312 26.805,3.077 C21.835,4.843 17.381,7.26 13.443,10.328 C9.506,13.397 6.328,17.253 3.911,21.897 C1.494,26.541 0.286,31.551 0.286,36.929 C0.286,45.348 3.084,52.626 8.678,58.764 C11.123,61.425 13.146,63.788 14.748,65.852 C16.351,67.915 17.967,70.509 19.596,73.632 C21.225,76.755 22.149,79.675 22.366,82.391 C19.813,83.912 18.537,86.139 18.537,89.073 C18.537,91.083 19.216,92.821 20.574,94.287 C19.216,95.754 18.537,97.492 18.537,99.502 C18.537,102.327 19.76,104.526 22.204,106.103 C21.497,107.351 21.144,108.627 21.144,109.931 C21.144,112.429 21.999,114.359 23.71,115.715 C25.42,117.073 27.525,117.752 30.024,117.752 C31.11,120.142 32.74,122.043 34.912,123.455 C37.084,124.867 39.447,125.573 42,125.573 C44.553,125.573 46.916,124.867 49.088,123.455 C51.261,122.043 52.891,120.142 53.977,117.752 C56.475,117.752 58.581,117.073 60.291,115.715 C62.002,114.359 62.857,112.429 62.857,109.931 C62.857,108.627 62.503,107.351 61.796,106.103 C64.24,104.527 65.463,102.327 65.463,99.502 C65.463,97.492 64.783,95.754 63.426,94.287 C64.783,92.821 65.463,91.083 65.463,89.073 C65.463,86.139 64.187,83.913 61.633,82.391 C61.851,79.675 62.775,76.755 64.404,73.632 C66.035,70.509 67.65,67.915 69.253,65.852 C70.856,63.788 72.879,61.425 75.322,58.764 C80.916,52.626 83.715,45.348 83.715,36.929 C83.715,31.551 82.506,26.541 80.087,21.897 L80.087,21.897 Z M67.745,51.594 C67.201,52.191 66.373,53.087 65.26,54.282 C64.147,55.477 63.319,56.372 62.776,56.97 C55.824,65.281 51.995,73.373 51.289,81.249 L32.712,81.249 C32.006,73.373 28.177,65.281 21.224,56.97 C20.681,56.373 19.853,55.477 18.739,54.282 C17.626,53.087 16.797,52.192 16.254,51.594 C12.561,47.303 10.714,42.414 10.714,36.929 C10.714,33.018 11.651,29.379 13.525,26.011 C15.4,22.643 17.844,19.887 20.858,17.741 C23.872,15.595 27.212,13.912 30.879,12.69 C34.545,11.467 38.252,10.857 42,10.857 C45.748,10.857 49.455,11.467 53.121,12.69 C56.787,13.912 60.127,15.595 63.142,17.741 C66.156,19.887 68.601,22.644 70.474,26.011 C72.347,29.379 73.285,33.018 73.285,36.929 C73.285,42.414 71.439,47.303 67.745,51.594 L67.745,51.594 Z" id="Shape"></path>
                        <path d="M50.107,25.198 C47.419,24.329 44.716,23.894 42.001,23.894 C41.295,23.894 40.684,24.151 40.168,24.668 C39.652,25.184 39.394,25.795 39.394,26.501 C39.394,27.207 39.652,27.818 40.168,28.334 C40.684,28.849 41.295,29.108 42.001,29.108 C44.826,29.108 47.704,29.787 50.639,31.144 C53.571,32.502 55.036,34.43 55.036,36.929 C55.036,37.635 55.293,38.247 55.81,38.762 C56.327,39.277 56.937,39.535 57.642,39.535 C58.349,39.535 58.959,39.278 59.476,38.762 C59.992,38.246 60.249,37.635 60.249,36.929 C60.249,34.104 59.229,31.66 57.194,29.597 C55.159,27.534 52.795,26.066 50.107,25.198 L50.107,25.198 Z" id="Shape"></path>
                    </g>
                </g>
            </g>
        </g>
    </g>
</svg>