<?xml version="1.0" encoding="UTF-8" standalone="no"?>
<svg width="60px" height="48px" viewBox="0 0 60 48" version="1.1" xmlns="http://www.w3.org/2000/svg" xmlns:xlink="http://www.w3.org/1999/xlink" xmlns:sketch="http://www.bohemiancoding.com/sketch/ns">
    <!-- Generator: Sketch 3.5.1 (25234) - http://www.bohemiancoding.com/sketch -->
    <title>envelope4</title>
    <desc>Created with Sketch.</desc>
    <defs></defs>
    <g id="Artboards" stroke="none" stroke-width="1" fill="none" fill-rule="evenodd" sketch:type="MSPage">
        <g id="Mobile-Portrait" sketch:type="MSArtboardGroup" transform="translate(-225.000000, -4727.000000)" fill="#FAFAFA">
            <g id="Group-2-Copy" sketch:type="MSLayerGroup" transform="translate(35.000000, 4462.000000)">
                <g id="Icons" transform="translate(0.000000, 260.000000)" sketch:type="MSShapeGroup">
                    <g id="envelope4" transform="translate(190.000000, 5.000000)">
                        <g id="Group">
                            <path d="M5.75876712,14.7957534 C6.51780822,15.3312329 8.80561644,16.9220548 12.6226027,19.5669863 C16.439589,22.2119178 19.3635616,24.2486301 21.3949315,25.6767123 C21.6180822,25.8332877 22.0923288,26.1735616 22.8176712,26.6979452 C23.5430137,27.2227397 24.1458904,27.6472603 24.6254795,27.9706849 C25.1054795,28.2941096 25.6857534,28.6569863 26.3667123,29.0584932 C27.0476712,29.46 27.689589,29.7616438 28.2920548,29.9617808 C28.8949315,30.1631507 29.4530137,30.2630137 29.9663014,30.2630137 L30,30.2630137 L30.0336986,30.2630137 C30.5469863,30.2630137 31.1050685,30.1631507 31.7079452,29.9617808 C32.310411,29.7616438 32.9527397,29.459589 33.6332877,29.0584932 C34.3138356,28.6565753 34.8941096,28.2941096 35.3741096,27.9706849 C35.8541096,27.6472603 36.4565753,27.2227397 37.1819178,26.6979452 C37.9072603,26.1731507 38.3819178,25.8332877 38.6050685,25.6767123 C40.6582192,24.2482192 45.8819178,20.6210959 54.2745205,14.7949315 C55.9039726,13.6569863 57.2650685,12.2839726 58.3590411,10.6767123 C59.4534247,9.07027397 60,7.38493151 60,5.62150685 C60,4.14821918 59.4694521,2.8869863 58.4091781,1.83780822 C57.3489041,0.788630137 56.0930137,0.264246575 54.6427397,0.264246575 L5.35684932,0.264246575 C3.63821918,0.264246575 2.31575342,0.844520548 1.38945205,2.00506849 C0.463150685,3.1660274 0,4.61712329 0,6.35794521 C0,7.76424658 0.613972603,9.28808219 1.84150685,10.9286301 C3.0690411,12.5691781 4.37506849,13.8583562 5.75876712,14.7957534 L5.75876712,14.7957534 Z" id="Shape"></path>
                            <path d="M56.6515068,18.3780822 C49.3306849,23.3330137 43.7720548,27.1836986 39.9780822,29.9293151 C38.7057534,30.8667123 37.6734247,31.5982192 36.8806849,32.1221918 C36.0883562,32.6469863 35.0338356,33.1824658 33.7167123,33.7294521 C32.4,34.2764384 31.1724658,34.549726 30.0341096,34.549726 L30,34.549726 L29.9663014,34.549726 C28.8279452,34.549726 27.6,34.2764384 26.2832877,33.7294521 C24.9665753,33.1824658 23.9116438,32.6469863 23.1193151,32.1221918 C22.3269863,31.5982192 21.2946575,30.8667123 20.0223288,29.9293151 C17.0087671,27.719589 11.4620548,23.8689041 3.38178082,18.3780822 C2.10945205,17.530274 0.982191781,16.5587671 0,15.4652055 L0,42.0493151 C0,43.5230137 0.524383562,44.7838356 1.57356164,45.8330137 C2.62273973,46.8826027 3.8839726,47.4069863 5.35726027,47.4069863 L54.6431507,47.4069863 C56.1160274,47.4069863 57.3772603,46.8826027 58.4264384,45.8330137 C59.4760274,44.7834247 60,43.5230137 60,42.0493151 L60,15.4652055 C59.04,16.5361644 57.9242466,17.5076712 56.6515068,18.3780822 L56.6515068,18.3780822 Z" id="Shape"></path>
                        </g>
                    </g>
                </g>
            </g>
        </g>
    </g>
</svg>