<?xml version="1.0" encoding="UTF-8" standalone="no"?>
<svg width="93px" height="128px" viewBox="0 0 93 128" version="1.1" xmlns="http://www.w3.org/2000/svg" xmlns:xlink="http://www.w3.org/1999/xlink" xmlns:sketch="http://www.bohemiancoding.com/sketch/ns">
    <!-- Generator: Sketch 3.5.1 (25234) - http://www.bohemiancoding.com/sketch -->
    <title>pencil30</title>
    <desc>Created with Sketch.</desc>
    <defs></defs>
    <g id="Artboards" stroke="none" stroke-width="1" fill="none" fill-rule="evenodd" sketch:type="MSPage">
        <g id="Desktop" sketch:type="MSArtboardGroup" transform="translate(-836.000000, -2981.000000)" fill="#ECEFF1">
            <g id="Contact-Section" sketch:type="MSLayerGroup" transform="translate(0.000000, 2870.000000)">
                <g id="pencil30" transform="translate(882.934182, 171.934182) rotate(-15.000000) translate(-882.934182, -171.934182) translate(827.934182, 116.934182)" sketch:type="MSShapeGroup">
                    <g id="Group" transform="translate(0.000000, -0.000000)">
                        <path d="M0.251935484,79.6816935 L0.251935484,109.748065 L30.3183065,109.748065 L90.4510484,49.6153226 L60.3846774,19.5489516 L0.251935484,79.6816935 L0.251935484,79.6816935 Z M26.4878226,100.496532 L26.4878226,100.496532 L18.7541129,100.497419 L18.7541129,91.2458871 L9.50346774,91.2458871 L9.50346774,83.5112903 L16.0804032,76.9343548 L33.0647581,93.9187097 L26.4878226,100.496532 L26.4878226,100.496532 Z M62.6982258,31.836129 C63.7574194,31.836129 64.2870161,32.3666129 64.2870161,33.4258065 C64.2870161,33.9083871 64.1193548,34.3173387 63.781371,34.6553226 L24.6080645,73.828629 C24.2709677,74.1648387 23.861129,74.3333871 23.3794355,74.3333871 C22.3202419,74.3333871 21.7897581,73.8020161 21.7897581,72.7437097 C21.7897581,72.261129 21.9583065,71.8521774 22.2954032,71.5141935 L61.4687097,32.3417742 C61.8058065,32.0046774 62.2156452,31.836129 62.6982258,31.836129 L62.6982258,31.836129 Z" id="Shape"></path>
                        <path d="M107.073468,19.9091129 L90.0891129,2.9975 C88.2590323,1.16741935 86.066129,0.251048387 83.5121774,0.251048387 C80.9094355,0.251048387 78.7422581,1.16741935 77.0079839,2.9975 L65.0108871,14.9227419 L95.0772581,44.9891129 L107.075242,32.9920161 C108.858306,31.2089516 109.748952,29.0408871 109.748952,26.4869355 C109.748065,23.9817742 108.857419,21.788871 107.073468,19.9091129 L107.073468,19.9091129 Z" id="Shape"></path>
                    </g>
                </g>
            </g>
        </g>
    </g>
</svg>