<?xml version="1.0" encoding="UTF-8" standalone="no"?>
<svg width="60px" height="49px" viewBox="0 0 60 49" version="1.1" xmlns="http://www.w3.org/2000/svg" xmlns:xlink="http://www.w3.org/1999/xlink" xmlns:sketch="http://www.bohemiancoding.com/sketch/ns">
    <!-- Generator: Sketch 3.5.1 (25234) - http://www.bohemiancoding.com/sketch -->
    <title>twitter16</title>
    <desc>Created with Sketch.</desc>
    <defs></defs>
    <g id="Artboards" stroke="none" stroke-width="1" fill="none" fill-rule="evenodd" sketch:type="MSPage">
        <g id="Mobile-Portrait" sketch:type="MSArtboardGroup" transform="translate(-35.000000, -4727.000000)" fill="#ECEFF1">
            <g id="Group-2-Copy" sketch:type="MSLayerGroup" transform="translate(35.000000, 4462.000000)">
                <g id="Icons" transform="translate(0.000000, 260.000000)" sketch:type="MSShapeGroup">
                    <g id="twitter16" transform="translate(0.000000, 5.000000)">
                        <path d="M59.6312308,6.11123077 C57.3,7.11415385 54.9678462,7.74046154 52.6375385,7.992 C55.2696923,6.41261538 57.0498462,4.18153846 57.9775385,1.29876923 C55.5701538,2.72723077 53.0007692,3.70476923 50.2684615,4.23138462 C47.8615385,1.67446154 44.904,0.395538462 41.394,0.395538462 C38.0349231,0.395538462 35.1710769,1.57984615 32.8015385,3.94892308 C30.4324615,6.318 29.2481538,9.18184615 29.2481538,12.5409231 C29.2481538,13.4432308 29.3483077,14.3709231 29.5490769,15.3235385 C24.5852308,15.0729231 19.9287692,13.8258462 15.5792308,11.5823077 C11.2296923,9.33830769 7.53830769,6.34892308 4.50507692,2.61369231 C3.402,4.49353846 2.85046154,6.53676923 2.85046154,8.74292308 C2.85046154,10.8235385 3.33923077,12.7541538 4.31723077,14.5338462 C5.29476923,16.3135385 6.61107692,17.7549231 8.26569231,18.858 C6.31015385,18.7827692 4.48015385,18.2686154 2.77569231,17.316 L2.77569231,17.4664615 C2.77569231,20.3995385 3.69692308,22.9749231 5.53938462,25.194 C7.38184615,27.4130769 9.70707692,28.8101538 12.5146154,29.3866154 C11.4618462,29.6621538 10.3961538,29.8001538 9.31846154,29.8001538 C8.61646154,29.8001538 7.85169231,29.7373846 7.02461538,29.6127692 C7.80184615,32.0441538 9.23076923,34.0430769 11.3113846,35.61 C13.392,37.1773846 15.7486154,37.9850769 18.3807692,38.0358462 C13.9689231,41.4946154 8.94276923,43.2244615 3.30230769,43.2244615 C2.22415385,43.2244615 1.24661538,43.1750769 0.369230769,43.0744615 C6.00969231,46.7090769 12.2266154,48.5261538 19.0204615,48.5261538 C23.3321538,48.5261538 27.3807692,47.8435385 31.1653846,46.4773846 C34.9513846,45.1112308 38.1849231,43.2812308 40.8673846,40.9869231 C43.5493846,38.6935385 45.8621538,36.0549231 47.8047692,33.0715385 C49.7473846,30.0886154 51.1947692,26.9741538 52.1478462,23.7276923 C53.1004615,20.4807692 53.5767692,17.2287692 53.5767692,13.9693846 C53.5767692,13.2673846 53.5643077,12.7412308 53.5389231,12.39 C55.9209231,10.6610769 57.9516923,8.56753846 59.6312308,6.11123077 L59.6312308,6.11123077 Z" id="Shape"></path>
                    </g>
                </g>
            </g>
        </g>
    </g>
</svg>
